<svg width="22" height="22" viewBox="0 0 22 22" fill="none" xmlns="http://www.w3.org/2000/svg">
<path d="M11.1612 14.2166L6.07584 19.3022C5.85347 19.5243 5.58921 19.694 5.30257 19.8039C5.01562 19.9146 4.70547 19.9654 4.39219 19.9494C3.76467 19.9168 3.15275 20.1516 2.7082 20.5961L2.02405 21.2811C1.84323 21.4611 1.60678 21.5513 1.37006 21.5513C1.13068 21.5519 0.891516 21.4596 0.710188 21.275C0.351957 20.91 0.371164 20.3181 0.732875 19.9559L1.40053 19.2881C1.62272 19.066 1.79244 18.8017 1.90236 18.5148C2.01408 18.2258 2.06426 17.9135 2.04729 17.5974C2.01305 16.9726 2.25243 16.3637 2.69509 15.9213L4.39928 14.2166H11.1612V14.2166Z" fill="#E03FBD"/>
<path d="M9.8202 8.79541L13.2015 12.1762L11.1611 14.2164H4.39972L9.8202 8.79541Z" fill="white"/>
<path d="M14.9428 11.0491C15.3384 11.4449 15.3384 12.0872 14.9428 12.4831C14.7441 12.681 14.485 12.7803 14.2256 12.7803C13.966 12.7803 13.7061 12.681 13.5083 12.4831L13.2016 12.1762L9.82029 8.79541L9.51341 8.48827C9.11719 8.09235 9.11719 7.45022 9.51341 7.05371C9.71124 6.85588 9.97064 6.75684 10.2306 6.75684C10.4902 6.75684 10.7496 6.85592 10.9475 7.05371L14.9428 11.0491Z" fill="#3F5968"/>
<path d="M20.8478 1.14895C21.7817 2.08253 21.7817 3.5962 20.8478 4.52974L14.7531 10.6244C14.6885 10.6892 14.5827 10.6892 14.5182 10.6244L11.3725 7.47873C11.3072 7.41398 11.3072 7.30845 11.3725 7.24314L17.4672 1.14895C18.4009 0.215324 19.9142 0.215324 20.8478 1.14895Z" fill="#3F5968"/>
<path d="M21.9968 2.83947C21.9968 2.08102 21.7013 1.36796 21.165 0.831662C20.6286 0.295325 19.9156 0 19.1572 0C18.3989 0 17.6859 0.295325 17.1495 0.831619L11.2542 6.72643C10.9791 6.45663 10.6161 6.30795 10.2303 6.30795C9.8394 6.30795 9.47198 6.46011 9.19564 6.73644C8.91927 7.01294 8.76712 7.38046 8.76712 7.77121C8.76712 8.15725 8.91587 8.52025 9.18563 8.79508L4.08751 13.8936C4.08553 13.8955 4.08338 13.8972 4.08145 13.8991L2.37744 15.6037C1.84161 16.1392 1.55781 16.8747 1.59876 17.6214C1.61229 17.8736 1.57349 18.1197 1.48287 18.3541C1.39366 18.587 1.25909 18.7944 1.08279 18.9706L0.414878 19.6385C-0.124639 20.1788 -0.135982 21.0539 0.389655 21.5893C0.649832 21.8541 0.997192 22 1.36775 22V21.5535L1.36977 22C1.73604 22 2.08078 21.8575 2.34139 21.5981L3.02536 20.9133C3.35953 20.5791 3.80387 20.395 4.27644 20.395C4.30699 20.395 4.33802 20.3959 4.36913 20.3975C4.74356 20.4164 5.11515 20.357 5.46294 20.2228C5.81374 20.0884 6.1266 19.8853 6.39296 19.6194L11.4782 14.5338L13.2014 12.8109C13.4766 13.0806 13.8395 13.2292 14.2253 13.2292C14.6148 13.2292 14.982 13.0771 15.26 12.8004C15.8267 12.2333 15.8298 11.3132 15.2698 10.7422L21.1649 4.84727C21.7013 4.31098 21.9968 3.59791 21.9968 2.83947ZM5.7584 18.9844C5.58175 19.1608 5.3743 19.2955 5.14085 19.385C4.93739 19.4634 4.72336 19.5033 4.50469 19.5033C4.47475 19.5033 4.44475 19.5025 4.41528 19.501C4.36926 19.4986 4.32255 19.4974 4.27649 19.4974C3.56411 19.4974 2.89431 19.7748 2.39041 20.2788L1.70708 20.9628C1.61676 21.0527 1.49696 21.1023 1.36879 21.1023L1.36775 21.5465V21.1023C1.24005 21.1023 1.12013 21.0518 1.03019 20.9603C0.848004 20.7747 0.856984 20.4664 1.04996 20.2731L1.71761 19.6054C1.98363 19.3395 2.18665 19.0266 2.32076 18.6765C2.45693 18.3242 2.51567 17.9529 2.49517 17.5727C2.46819 17.0801 2.6566 16.5939 3.01221 16.2385L4.58492 14.6653H10.0772L5.7584 18.9844ZM10.975 13.7676H5.48305L9.82002 9.4302L12.5665 12.1763L10.975 13.7676ZM14.6258 12.1651C14.5181 12.2725 14.3758 12.3315 14.2254 12.3315C14.0743 12.3315 13.9323 12.2726 13.8255 12.1659L13.521 11.8614L13.5187 11.8588L10.6643 9.00485L10.1376 8.47814L9.83042 8.1707C9.72365 8.06405 9.66486 7.92216 9.66486 7.77121C9.66486 7.62014 9.72377 7.47799 9.83055 7.37113C9.9372 7.26444 10.0792 7.20566 10.2303 7.20566C10.3812 7.20566 10.5231 7.26444 10.6297 7.37113L11.0546 7.79605L12.0165 8.75791L14.6251 11.3665C14.8454 11.5868 14.8454 11.9454 14.6258 12.1651ZM20.5301 4.21245L14.6354 10.1072L14.2039 9.67572L11.8892 7.36103L17.7843 1.46644C18.1511 1.09966 18.6387 0.897705 19.1572 0.897705C19.6758 0.897705 20.1634 1.09966 20.5301 1.46648C20.897 1.83322 21.099 2.32083 21.099 2.83942C21.099 3.35801 20.897 3.84571 20.5301 4.21245Z" fill="black"/>
<path d="M19.0546 3.4286L16.0882 6.395C15.913 6.57027 15.913 6.85451 16.0882 7.02982C16.1759 7.11743 16.2908 7.1613 16.4056 7.1613C16.5205 7.1613 16.6354 7.11743 16.7231 7.02982L19.6894 4.06343C19.8647 3.88816 19.8647 3.60392 19.6894 3.4286C19.5141 3.25329 19.2299 3.25329 19.0546 3.4286Z" fill="black"/>
<path d="M15.1317 7.35164L14.4114 8.07201C14.2361 8.24732 14.2361 8.53152 14.4114 8.70683C14.499 8.79444 14.6139 8.83831 14.7288 8.83831C14.8437 8.83831 14.9586 8.79444 15.0462 8.70683L15.7665 7.98646C15.9418 7.81114 15.9418 7.52695 15.7665 7.35164C15.5912 7.17641 15.307 7.17641 15.1317 7.35164Z" fill="black"/>
</svg>
