<svg width="12" height="7" viewBox="0 0 12 7" fill="none" xmlns="http://www.w3.org/2000/svg">
<path d="M11.2902 6.33605C11.091 6.53476 10.7792 6.55282 10.5595 6.39024L10.4966 6.33605L5.99997 1.85106L1.50338 6.33605C1.30415 6.53476 0.99239 6.55282 0.772702 6.39024L0.709763 6.33605C0.510535 6.13735 0.492423 5.8264 0.655428 5.60729L0.709763 5.54452L5.60316 0.663947C5.80239 0.465242 6.11415 0.447177 6.33384 0.609754L6.39678 0.663947L11.2902 5.54452C11.5093 5.76309 11.5093 6.11747 11.2902 6.33605Z" fill="#2F2F2F"/>
<path fill-rule="evenodd" clip-rule="evenodd" d="M1.10563 5.99092L1.10721 5.99228L5.99997 1.11215L10.8846 5.98419L10.8936 5.9919C10.9015 5.98133 10.9091 5.96402 10.9091 5.94028C10.9091 5.91152 10.8979 5.89219 10.8886 5.88286L6.00873 1.01581L5.99933 1.00771L1.12476 5.8695L1.10116 5.89676C1.09458 5.90897 1.08965 5.92654 1.09111 5.94745C1.09248 5.96716 1.09887 5.98153 1.10563 5.99092ZM0.308157 6.67439C-0.0680029 6.29922 -0.0965487 5.73064 0.20478 5.32559L0.215881 5.31067L0.294765 5.21953L5.20156 0.325607C5.59459 -0.0663912 6.23193 -0.10826 6.67647 0.220715L6.69238 0.232487L6.78483 0.312084L11.6918 5.20618C12.1027 5.61605 12.1027 6.26452 11.6918 6.67439C11.2988 7.06639 10.6614 7.10826 10.2169 6.77928L10.201 6.76751L10.1085 6.68791L5.99997 2.58997L1.90499 6.67438C1.51196 7.06638 0.874606 7.10826 0.430067 6.77928L0.414161 6.76751L0.321716 6.68791L0.308157 6.67439Z" fill="#2F2F2F"/>
</svg>
