<svg width="10" height="6" viewBox="0 0 10 6" fill="none" xmlns="http://www.w3.org/2000/svg">
<path d="M0.591516 0.569099C0.75754 0.39878 1.01734 0.383296 1.20041 0.522648L1.25286 0.569099L5.00002 4.41337L8.74719 0.569099C8.91321 0.39878 9.17301 0.383297 9.35608 0.522648L9.40853 0.569099C9.57455 0.739418 9.58965 1.00594 9.45381 1.19375L9.40853 1.24756L5.3307 5.4309C5.16467 5.60122 4.90487 5.6167 4.7218 5.47735L4.66935 5.4309L0.591516 1.24756C0.408892 1.0602 0.408892 0.756449 0.591516 0.569099Z" fill="#2F2F2F"/>
<path fill-rule="evenodd" clip-rule="evenodd" d="M9.07864 0.864923L9.07732 0.863757L5.00002 5.04672L0.929489 0.870695L0.92202 0.864081C0.915426 0.873141 0.909095 0.88798 0.909095 0.908327C0.909095 0.932983 0.918391 0.949551 0.926187 0.95755L4.99272 5.1293L5.00056 5.13624L9.0627 0.968999L9.08236 0.945631C9.08785 0.935171 9.09196 0.920112 9.09074 0.902183C9.0896 0.885294 9.08428 0.87297 9.07864 0.864923ZM9.7432 0.279093C10.0567 0.60067 10.0805 1.08802 9.82935 1.43521L9.8201 1.448L9.75436 1.52611L5.66537 5.72091C5.33784 6.05691 4.80672 6.09279 4.43627 5.81081L4.42302 5.80072L4.34598 5.7325L0.256845 1.53756C-0.0856152 1.18624 -0.0856152 0.630414 0.256845 0.279093C0.58437 -0.056906 1.11549 -0.0927926 1.48594 0.189186L1.4992 0.199276L1.57624 0.267504L5.00002 3.78002L8.41251 0.279099C8.74003 -0.0568992 9.27116 -0.0927922 9.64161 0.189186L9.65487 0.199276L9.7319 0.267502L9.7432 0.279093Z" fill="#2F2F2F"/>
</svg>
