<svg width="12" height="7" viewBox="0 0 12 7" fill="none" xmlns="http://www.w3.org/2000/svg">
<path d="M0.709821 0.663948C0.909048 0.465243 1.22081 0.447179 1.44049 0.609756L1.50343 0.663948L6.00003 5.14894L10.4966 0.663949C10.6959 0.465244 11.0076 0.447179 11.2273 0.609757L11.2902 0.663949C11.4895 0.862654 11.5076 1.1736 11.3446 1.39271L11.2902 1.45548L6.39684 6.33605C6.19761 6.53476 5.88585 6.55282 5.66616 6.39025L5.60322 6.33605L0.709821 1.45548C0.49067 1.23691 0.49067 0.882524 0.709821 0.663948Z" fill="#2F2F2F"/>
<path fill-rule="evenodd" clip-rule="evenodd" d="M10.8944 1.00908L10.8928 1.00772L6.00003 5.88785L1.11539 1.01581L1.10642 1.00809C1.09851 1.01867 1.09091 1.03598 1.09091 1.05972C1.09091 1.08848 1.10207 1.10781 1.11143 1.11714L5.99127 5.98419L6.00067 5.99228L10.8752 1.1305L10.8988 1.10324C10.9054 1.09103 10.9104 1.07346 10.9089 1.05255C10.9075 1.03284 10.9011 1.01847 10.8944 1.00908ZM11.6918 0.325608C12.068 0.700782 12.0965 1.26936 11.7952 1.67441L11.7841 1.68933L11.7052 1.78047L6.79844 6.67439C6.40541 7.06639 5.76807 7.10826 5.32353 6.77928L5.30762 6.76751L5.21517 6.68792L0.308215 1.79382C-0.102737 1.38395 -0.102737 0.735483 0.308215 0.325608C0.701243 -0.0663904 1.33859 -0.108258 1.78313 0.220717L1.79904 0.232488L1.89149 0.312088L6.00003 4.41003L10.095 0.325616C10.488 -0.0663825 11.1254 -0.108258 11.5699 0.220717L11.5858 0.232489L11.6783 0.312085L11.6918 0.325608Z" fill="#2F2F2F"/>
</svg>
