<svg width="320" height="221" viewBox="0 0 320 221" fill="none" xmlns="http://www.w3.org/2000/svg">
<g filter="url(#filter0_d_4_275)">
<path fill-rule="evenodd" clip-rule="evenodd" d="M0 4L8 5.5597C15 6.33955 30 9.45896 46 18.0373C61 26.6157 76 41.4328 91 43.7724C107 46.8918 122 36.7537 137 28.1754C152 18.8172 168 11.7985 183 15.6978C198 18.8172 213 34.4142 229 34.4142C244 34.4142 259 18.8172 274 16.4776C290 14.1381 305 24.2761 312 28.9552L320 34.4142V64.0485H312C305 64.0485 290 64.0485 274 64.0485C259 64.0485 244 64.0485 229 64.0485C213 64.0485 198 64.0485 183 64.0485C168 64.0485 152 64.0485 137 64.0485C122 64.0485 107 64.0485 91 64.0485C76 64.0485 61 64.0485 46 64.0485C30 64.0485 15 64.0485 8 64.0485H0V4Z" fill="#008BD9"/>
<path fill-rule="evenodd" clip-rule="evenodd" d="M0 4L8 5.5597C15 6.33955 30 9.45896 46 18.0373C61 26.6157 76 41.4328 91 43.7724C107 46.8918 122 36.7537 137 28.1754C152 18.8172 168 11.7985 183 15.6978C198 18.8172 213 34.4142 229 34.4142C244 34.4142 259 18.8172 274 16.4776C290 14.1381 305 24.2761 312 28.9552L320 34.4142V64.0485H312C305 64.0485 290 64.0485 274 64.0485C259 64.0485 244 64.0485 229 64.0485C213 64.0485 198 64.0485 183 64.0485C168 64.0485 152 64.0485 137 64.0485C122 64.0485 107 64.0485 91 64.0485C76 64.0485 61 64.0485 46 64.0485C30 64.0485 15 64.0485 8 64.0485H0V4Z" stroke="black"/>
</g>
<rect y="62" width="320" height="164" fill="#008BD9"/>
<defs>
<filter id="filter0_d_4_275" x="0" y="0" width="328" height="68.0485" filterUnits="userSpaceOnUse" color-interpolation-filters="sRGB">
<feFlood flood-opacity="0" result="BackgroundImageFix"/>
<feColorMatrix in="SourceAlpha" type="matrix" values="0 0 0 0 0 0 0 0 0 0 0 0 0 0 0 0 0 0 127 0" result="hardAlpha"/>
<feOffset dx="4"/>
<feGaussianBlur stdDeviation="2"/>
<feColorMatrix type="matrix" values="0 0 0 0 0 0 0 0 0 0 0 0 0 0 0 0 0 0 0.25 0"/>
<feBlend mode="normal" in2="BackgroundImageFix" result="effect1_dropShadow_4_275"/>
<feBlend mode="normal" in="SourceGraphic" in2="effect1_dropShadow_4_275" result="shape"/>
</filter>
</defs>
</svg>
